<?xml version="1.0" encoding="UTF-8"?>
<svg xmlns="http://www.w3.org/2000/svg" xmlns:xlink="http://www.w3.org/1999/xlink" width="200px" height="47px" viewBox="0 0 201 47" version="1.1">
<defs>
<linearGradient id="linear0" gradientUnits="userSpaceOnUse" x1="119.251" y1="276.386" x2="112.859" y2="-28.0325" gradientTransform="matrix(0.175853,0,0,0.176692,0,0)">
<stop offset="0" style="stop-color:rgb(100%,0%,30.980392%);stop-opacity:1;"/>
<stop offset="1" style="stop-color:rgb(100%,1.960784%,50.588235%);stop-opacity:1;"/>
</linearGradient>
<linearGradient id="linear1" gradientUnits="userSpaceOnUse" x1="119.251" y1="276.386" x2="112.859" y2="-28.0325" gradientTransform="matrix(0.175853,0,0,0.176692,0,0)">
<stop offset="0" style="stop-color:rgb(100%,0%,30.980392%);stop-opacity:1;"/>
<stop offset="1" style="stop-color:rgb(100%,1.960784%,50.588235%);stop-opacity:1;"/>
</linearGradient>
<linearGradient id="linear2" gradientUnits="userSpaceOnUse" x1="119.251" y1="276.386" x2="112.859" y2="-28.0325" gradientTransform="matrix(0.175853,0,0,0.176692,0,0)">
<stop offset="0" style="stop-color:rgb(100%,0%,30.980392%);stop-opacity:1;"/>
<stop offset="1" style="stop-color:rgb(100%,1.960784%,50.588235%);stop-opacity:1;"/>
</linearGradient>
<linearGradient id="linear3" gradientUnits="userSpaceOnUse" x1="119.251" y1="276.386" x2="112.859" y2="-28.0325" gradientTransform="matrix(0.175853,0,0,0.176692,0,0)">
<stop offset="0" style="stop-color:rgb(100%,0%,30.980392%);stop-opacity:1;"/>
<stop offset="1" style="stop-color:rgb(100%,1.960784%,50.588235%);stop-opacity:1;"/>
</linearGradient>
</defs>
<g id="surface1">
<path style=" stroke:none;fill-rule:nonzero;fill:rgb(16.470588%,7.45098%,31.764706%);fill-opacity:1;" d="M 60.238281 23.632812 C 60.238281 32.105469 66.5625 36.636719 73.25 36.636719 C 78.558594 36.636719 83.976562 33.824219 85.066406 27.066406 L 79.832031 27.066406 C 78.960938 30.171875 76.378906 31.667969 73.214844 31.667969 C 68.671875 31.667969 65.726562 28.015625 65.726562 23.632812 C 65.726562 18.773438 68.742188 15.488281 73.25 15.488281 C 76.304688 15.488281 78.59375 16.765625 79.722656 19.652344 L 84.992188 19.652344 C 83.832031 13.332031 78.378906 10.554688 73.25 10.554688 C 66.5625 10.445312 60.238281 15.121094 60.238281 23.632812 Z M 93.816406 26.300781 C 93.816406 23.816406 95.597656 22.425781 97.5625 22.425781 C 99.707031 22.425781 100.472656 23.414062 100.761719 25.277344 C 100.871094 26.117188 100.871094 27.101562 100.871094 28.273438 L 100.871094 31.632812 C 100.871094 36.269531 103.707031 37.148438 107.921875 36.269531 L 107.921875 33.203125 C 106.214844 33.3125 105.960938 32.949219 105.960938 31.375 L 105.960938 26.664062 C 105.960938 25.789062 105.925781 24.984375 105.816406 24.144531 C 105.269531 20.820312 103.488281 18.628906 99.5625 18.445312 C 97.34375 18.335938 95.234375 18.996094 93.816406 21.148438 L 93.816406 9.679688 L 88.730469 9.679688 L 88.730469 36.417969 L 93.816406 36.417969 Z M 127.671875 20.015625 C 125.34375 19.03125 122.800781 18.410156 120.21875 18.375 C 114.292969 18.261719 110.257812 21.40625 110.078125 27.359375 C 110.078125 32.363281 112.585938 36.5625 118 36.671875 C 120.328125 36.671875 122.582031 35.46875 123.5625 33.277344 C 123.5625 36.890625 126.980469 36.710938 129.34375 36.199219 L 129.34375 32.910156 C 127.597656 33.019531 127.671875 32.21875 127.671875 30.71875 Z M 122.726562 27.542969 C 122.617188 30.207031 121.527344 32.144531 119.09375 32.144531 C 116.476562 32.179688 115.164062 30.136719 115.164062 27.359375 C 115.273438 24 117.054688 22.464844 119.820312 22.464844 C 120.691406 22.464844 121.746094 22.574219 122.726562 22.976562 Z M 132.527344 13.699219 C 132.527344 17.644531 138.488281 17.644531 138.488281 13.699219 C 138.488281 9.789062 132.527344 9.789062 132.527344 13.699219 Z M 138.054688 18.996094 L 132.964844 18.996094 L 132.964844 36.378906 L 138.054688 36.378906 Z M 141.558594 21.695312 C 143.523438 21.585938 143.488281 22.28125 143.488281 24.21875 L 143.488281 36.378906 L 148.578125 36.378906 L 148.578125 26.261719 C 148.578125 23.816406 150.359375 22.316406 152.25 22.425781 C 154.101562 22.425781 155.664062 23.707031 155.628906 26.152344 L 155.628906 32.328125 C 155.628906 36.710938 159.082031 37.148438 162.535156 36.269531 L 162.535156 33.277344 C 160.753906 33.386719 160.683594 32.582031 160.683594 30.9375 L 160.683594 26.152344 C 160.792969 21.769531 158.71875 18.375 153.773438 18.375 C 151.449219 18.375 149.375 19.285156 148.25 21.367188 C 148.25 17.972656 144.140625 18.226562 141.558594 18.703125 Z M 165.65625 9.644531 L 165.65625 29.695312 C 165.65625 36.015625 168.929688 37.367188 174.34375 36.378906 L 174.164062 32.546875 C 171.726562 32.949219 170.671875 32.398438 170.671875 29.695312 L 170.671875 9.644531 Z M 176.621094 13.699219 C 176.621094 17.644531 182.582031 17.644531 182.582031 13.699219 C 182.582031 9.789062 176.621094 9.789062 176.621094 13.699219 Z M 182.148438 18.996094 L 177.054688 18.996094 L 177.054688 36.378906 L 182.148438 36.378906 Z M 193.613281 13.332031 L 189.542969 13.332031 L 188.996094 18.8125 L 185.328125 18.8125 L 185.328125 22.316406 L 188.632812 22.648438 L 188.632812 29.585938 C 188.632812 36.820312 193.976562 37.804688 200.011719 36.125 L 199.539062 32.253906 C 196.632812 33.3125 193.613281 33.128906 193.613281 29.476562 L 193.613281 22.648438 L 199.324219 22.648438 L 199.324219 18.8125 L 193.613281 18.8125 Z M 193.613281 13.332031 "/>
<path style=" stroke:none;fill-rule:nonzero;fill:url(#linear0);" d="M 14.085938 21.492188 C 13.757812 20.355469 13.152344 19.289062 12.265625 18.394531 C 9.457031 15.578125 4.910156 15.578125 2.105469 18.394531 C -0.703125 21.214844 -0.703125 25.785156 2.105469 28.605469 C 2.992188 29.496094 4.054688 30.105469 5.183594 30.433594 C 5.769531 30.621094 6.445312 30.769531 7.179688 30.925781 C 9.617188 31.453125 12.722656 32.125 15.515625 34.933594 C 15.515625 34.933594 15.921875 34.015625 16.785156 33.148438 C 17.648438 32.277344 18.5625 31.871094 18.5625 31.871094 C 15.769531 29.0625 15.101562 25.945312 14.574219 23.496094 C 14.417969 22.757812 14.273438 22.078125 14.085938 21.492188 Z M 14.085938 21.492188 "/>
<path style=" stroke:none;fill-rule:nonzero;fill:url(#linear1);" d="M 32.691406 25.511719 C 33.015625 26.644531 33.625 27.710938 34.511719 28.605469 C 37.320312 31.421875 41.867188 31.421875 44.671875 28.605469 C 47.476562 25.785156 47.476562 21.214844 44.671875 18.394531 C 43.785156 17.503906 42.71875 16.894531 41.59375 16.566406 C 41.007812 16.378906 40.332031 16.230469 39.597656 16.074219 C 37.160156 15.546875 34.054688 14.875 31.261719 12.066406 C 31.261719 12.066406 30.855469 12.984375 29.992188 13.851562 C 29.128906 14.722656 28.214844 15.128906 28.214844 15.128906 C 31.007812 17.9375 31.675781 21.058594 32.199219 23.503906 C 32.359375 24.242188 32.503906 24.921875 32.691406 25.511719 Z M 32.691406 25.511719 "/>
<path style=" stroke:none;fill-rule:nonzero;fill:url(#linear2);" d="M 16.488281 5.207031 C 16.8125 4.074219 17.421875 3.007812 18.308594 2.113281 C 21.113281 -0.703125 25.664062 -0.703125 28.46875 2.113281 C 31.273438 4.933594 31.273438 9.503906 28.46875 12.320312 C 27.578125 13.214844 26.515625 13.824219 25.386719 14.152344 C 24.800781 14.339844 24.128906 14.484375 23.390625 14.644531 C 20.957031 15.171875 17.851562 15.84375 15.058594 18.652344 C 15.058594 18.652344 14.652344 17.734375 13.789062 16.863281 C 12.925781 15.996094 12.007812 15.589844 12.007812 15.589844 C 14.804688 12.78125 15.472656 9.660156 15.996094 7.214844 C 16.15625 6.476562 16.300781 5.796875 16.488281 5.207031 Z M 16.488281 5.207031 "/>
<path style=" stroke:none;fill-rule:nonzero;fill:url(#linear3);" d="M 30.289062 41.792969 C 29.964844 42.925781 29.355469 43.992188 28.46875 44.886719 C 25.664062 47.703125 21.113281 47.703125 18.308594 44.886719 C 15.503906 42.066406 15.503906 37.496094 18.308594 34.679688 C 19.195312 33.785156 20.261719 33.175781 21.386719 32.847656 C 21.972656 32.660156 22.648438 32.515625 23.386719 32.355469 C 25.820312 31.828125 28.925781 31.15625 31.71875 28.347656 C 31.71875 28.347656 32.125 29.265625 32.988281 30.136719 C 33.851562 31.003906 34.765625 31.410156 34.765625 31.410156 C 31.972656 34.21875 31.304688 37.339844 30.78125 39.785156 C 30.621094 40.523438 30.476562 41.203125 30.289062 41.792969 Z M 30.289062 41.792969 "/>
<path style="fill:none;stroke-width:1;stroke-linecap:butt;stroke-linejoin:round;stroke:rgb(0%,0%,0%);stroke-opacity:0.101961;stroke-miterlimit:4;" d="M 79.61194 121.769282 C 80.678172 125.085439 81.500058 128.887965 82.388584 133.088431 L 82.410798 133.110539 C 85.342934 146.81732 89.141383 164.370844 104.712803 180.222074 C 104.623951 180.26629 104.535098 180.310505 104.446245 180.376828 C 103.868703 180.664229 103.046817 181.106383 102.069438 181.725399 C 100.136894 182.919215 97.582381 184.754156 95.094508 187.252327 C 92.606635 189.728391 90.785156 192.292886 89.563433 194.238364 C 88.963678 195.188996 88.519415 196.006981 88.230644 196.581782 C 88.164004 196.69232 88.119578 196.780751 88.075152 196.847074 C 72.21496 181.283245 54.666569 177.502826 40.961054 174.540392 L 40.938841 174.540392 C 36.740555 173.633976 32.942106 172.815991 29.632346 171.776928 L 29.610133 171.75482 C 23.279384 169.941988 17.304046 166.515293 12.3283 161.541057 C -3.443039 145.778258 -3.443039 120.221742 12.3283 104.458943 C 28.077425 88.718251 53.622551 88.718251 69.39389 104.458943 C 74.369636 109.455286 77.790462 115.424368 79.61194 121.769282 Z M 186.390567 144.230718 C 185.324335 140.914561 184.502449 137.112035 183.613923 132.911569 L 183.591709 132.889461 C 180.63736 119.18268 176.861124 101.629156 161.289704 85.777926 C 161.378556 85.73371 161.467409 85.689495 161.556262 85.623172 C 162.133804 85.335771 162.95569 84.893617 163.910856 84.274601 C 165.865613 83.080785 168.420126 81.245844 170.907999 78.747673 C 173.395872 76.271609 175.217351 73.707114 176.439074 71.761636 C 177.038829 70.811004 177.483092 69.993019 177.771863 69.418218 C 177.838503 69.30768 177.882929 69.219249 177.927355 69.152926 C 193.787547 84.716755 211.335938 88.497174 225.041453 91.459608 L 225.063666 91.459608 C 229.261952 92.366024 233.060401 93.184009 236.370161 94.223072 L 236.392374 94.24518 C 242.723123 96.058012 248.698461 99.484707 253.674207 104.458943 C 269.445546 120.221742 269.445546 145.778258 253.674207 161.541057 C 237.925082 177.281749 212.379956 177.281749 196.608617 161.541057 C 191.632871 156.544714 188.212045 150.575632 186.390567 144.230718 Z M 94.228195 29.624335 C 96.071887 23.279422 99.470499 17.310339 104.468458 12.313996 C 120.217584 -3.448803 145.784923 -3.448803 161.534049 12.313996 C 177.283174 28.076795 177.283174 53.633311 161.534049 69.374003 C 156.536089 74.370346 150.560751 77.797041 144.230002 79.609874 C 140.920243 80.671044 137.09958 81.489029 132.901294 82.395445 L 132.879081 82.395445 C 119.195779 85.357879 101.625175 89.138298 85.764984 104.702128 C 85.720557 104.635805 85.676131 104.525266 85.631705 104.436835 C 85.342934 103.862035 84.876458 103.044049 84.276702 102.07131 C 83.077192 100.147939 81.255714 97.583444 78.76784 95.085273 C 76.279967 92.609209 73.703242 90.774269 71.770697 89.580452 C 70.793319 88.961436 69.993645 88.519282 69.416103 88.209774 C 69.32725 88.165559 69.216185 88.121343 69.149545 88.077128 C 84.720965 72.225898 88.497201 54.672374 91.451551 40.965592 L 91.451551 40.943484 C 92.36229 36.743019 93.184177 32.940492 94.228195 29.624335 Z M 171.774312 236.375665 C 169.93062 242.720578 166.532008 248.689661 161.534049 253.686004 C 145.784923 269.448803 120.217584 269.448803 104.468458 253.686004 C 88.719333 237.923205 88.719333 212.366689 104.468458 196.625997 C 109.466418 191.629654 115.441756 188.202959 121.772505 186.390126 C 125.082264 185.328956 128.902927 184.510971 133.079 183.604555 L 133.101213 183.604555 C 146.806728 180.642121 164.355119 176.861702 180.237523 161.297872 C 180.28195 161.364195 180.326376 161.474734 180.370802 161.563165 C 180.659573 162.137965 181.126049 162.955951 181.725805 163.92869 C 182.925315 165.852061 184.746793 168.416556 187.234667 170.914727 C 189.72254 173.390791 192.299265 175.225731 194.23181 176.419548 C 195.186975 177.038564 196.008862 177.480718 196.586404 177.790226 C 196.675257 177.834441 196.764109 177.878657 196.852962 177.922872 C 181.281542 193.774102 177.505306 211.327626 174.550956 225.034408 L 174.550956 225.056516 C 173.640217 229.256981 172.81833 233.059508 171.774312 236.375665 Z M 171.774312 236.375665 " transform="matrix(0.175853,0,0,0.176692,0,0)"/>
</g>
</svg>
