<?xml version="1.0" encoding="UTF-8"?>
<svg xmlns="http://www.w3.org/2000/svg" xmlns:xlink="http://www.w3.org/1999/xlink" width="120px" height="28px" viewBox="0 0 120 28" version="1.1">
<defs>
<linearGradient id="linear0" gradientUnits="userSpaceOnUse" x1="119.251" y1="276.386" x2="112.859" y2="-28.0325" gradientTransform="matrix(0.103587,0,0,0.10474,0.8,0.0696518)">
<stop offset="0" style="stop-color:rgb(100%,0%,30.980392%);stop-opacity:1;"/>
<stop offset="1" style="stop-color:rgb(100%,1.960784%,50.588235%);stop-opacity:1;"/>
</linearGradient>
<linearGradient id="linear1" gradientUnits="userSpaceOnUse" x1="119.251" y1="276.386" x2="112.859" y2="-28.0325" gradientTransform="matrix(0.103587,0,0,0.10474,0.8,0.0696518)">
<stop offset="0" style="stop-color:rgb(100%,0%,30.980392%);stop-opacity:1;"/>
<stop offset="1" style="stop-color:rgb(100%,1.960784%,50.588235%);stop-opacity:1;"/>
</linearGradient>
<linearGradient id="linear2" gradientUnits="userSpaceOnUse" x1="119.251" y1="276.386" x2="112.859" y2="-28.0325" gradientTransform="matrix(0.103587,0,0,0.10474,0.8,0.0696518)">
<stop offset="0" style="stop-color:rgb(100%,0%,30.980392%);stop-opacity:1;"/>
<stop offset="1" style="stop-color:rgb(100%,1.960784%,50.588235%);stop-opacity:1;"/>
</linearGradient>
<linearGradient id="linear3" gradientUnits="userSpaceOnUse" x1="119.251" y1="276.386" x2="112.859" y2="-28.0325" gradientTransform="matrix(0.103587,0,0,0.10474,0.8,0.0696518)">
<stop offset="0" style="stop-color:rgb(100%,0%,30.980392%);stop-opacity:1;"/>
<stop offset="1" style="stop-color:rgb(100%,1.960784%,50.588235%);stop-opacity:1;"/>
</linearGradient>
</defs>
<g id="surface1">
<path style=" stroke:none;fill-rule:nonzero;fill:rgb(16.470588%,7.45098%,31.764706%);fill-opacity:1;" d="M 36.285156 14.078125 C 36.285156 19.101562 40.007812 21.789062 43.945312 21.789062 C 47.074219 21.789062 50.265625 20.117188 50.910156 16.117188 L 47.824219 16.117188 C 47.3125 17.957031 45.789062 18.839844 43.929688 18.839844 C 41.25 18.839844 39.515625 16.679688 39.515625 14.078125 C 39.515625 11.195312 41.292969 9.25 43.945312 9.25 C 45.746094 9.25 47.097656 10.007812 47.761719 11.71875 L 50.867188 11.71875 C 50.179688 7.972656 46.96875 6.324219 43.945312 6.324219 C 40.007812 6.261719 36.285156 9.035156 36.285156 14.078125 Z M 56.0625 15.660156 C 56.0625 14.1875 57.113281 13.363281 58.269531 13.363281 C 59.535156 13.363281 59.984375 13.949219 60.152344 15.054688 C 60.21875 15.550781 60.21875 16.132812 60.21875 16.828125 L 60.21875 18.820312 C 60.21875 21.570312 61.890625 22.089844 64.371094 21.570312 L 64.371094 19.753906 C 63.367188 19.816406 63.214844 19.601562 63.214844 18.667969 L 63.214844 15.875 C 63.214844 15.355469 63.195312 14.882812 63.132812 14.382812 C 62.808594 12.414062 61.757812 11.113281 59.445312 11.003906 C 58.140625 10.9375 56.898438 11.332031 56.0625 12.605469 L 56.0625 5.804688 L 53.066406 5.804688 L 53.066406 21.65625 L 56.0625 21.65625 Z M 76.007812 11.933594 C 74.632812 11.351562 73.136719 10.984375 71.617188 10.960938 C 68.125 10.894531 65.746094 12.757812 65.640625 16.289062 C 65.640625 19.253906 67.117188 21.742188 70.308594 21.808594 C 71.679688 21.808594 73.007812 21.09375 73.585938 19.796875 C 73.585938 21.9375 75.601562 21.832031 76.992188 21.527344 L 76.992188 19.578125 C 75.960938 19.644531 76.007812 19.167969 76.007812 18.277344 Z M 73.09375 16.398438 C 73.027344 17.976562 72.386719 19.125 70.953125 19.125 C 69.414062 19.144531 68.636719 17.933594 68.636719 16.289062 C 68.703125 14.296875 69.753906 13.386719 71.382812 13.386719 C 71.894531 13.386719 72.515625 13.449219 73.09375 13.691406 Z M 78.867188 8.191406 C 78.867188 10.527344 82.378906 10.527344 82.378906 8.191406 C 82.378906 5.871094 78.867188 5.871094 78.867188 8.191406 Z M 82.121094 11.332031 L 79.125 11.332031 L 79.125 21.632812 L 82.121094 21.632812 Z M 84.183594 12.929688 C 85.34375 12.867188 85.320312 13.277344 85.320312 14.425781 L 85.320312 21.632812 L 88.320312 21.632812 L 88.320312 15.636719 C 88.320312 14.1875 89.367188 13.296875 90.484375 13.363281 C 91.574219 13.363281 92.492188 14.121094 92.476562 15.570312 L 92.476562 19.234375 C 92.476562 21.832031 94.507812 22.089844 96.539062 21.570312 L 96.539062 19.796875 C 95.492188 19.859375 95.449219 19.382812 95.449219 18.410156 L 95.449219 15.570312 C 95.515625 12.976562 94.292969 10.960938 91.382812 10.960938 C 90.011719 10.960938 88.789062 11.5 88.128906 12.734375 C 88.128906 10.726562 85.707031 10.875 84.183594 11.15625 Z M 98.382812 5.789062 L 98.382812 17.671875 C 98.382812 21.417969 100.308594 22.21875 103.496094 21.632812 L 103.390625 19.363281 C 101.957031 19.601562 101.335938 19.273438 101.335938 17.671875 L 101.335938 5.789062 Z M 104.839844 8.191406 C 104.839844 10.527344 108.351562 10.527344 108.351562 8.191406 C 108.351562 5.871094 104.839844 5.871094 104.839844 8.191406 Z M 108.097656 11.332031 L 105.09375 11.332031 L 105.09375 21.632812 L 108.097656 21.632812 Z M 114.851562 7.972656 L 112.449219 7.972656 L 112.128906 11.222656 L 109.96875 11.222656 L 109.96875 13.296875 L 111.914062 13.492188 L 111.914062 17.605469 C 111.914062 21.898438 115.0625 22.476562 118.617188 21.484375 L 118.339844 19.191406 C 116.628906 19.816406 114.851562 19.710938 114.851562 17.542969 L 114.851562 13.492188 L 118.210938 13.492188 L 118.210938 11.222656 L 114.851562 11.222656 Z M 114.851562 7.972656 "/>
<path style=" stroke:none;fill-rule:nonzero;fill:url(#linear0);" d="M 9.097656 12.808594 C 8.902344 12.136719 8.546875 11.503906 8.023438 10.976562 C 6.371094 9.304688 3.695312 9.304688 2.039062 10.976562 C 0.382812 12.648438 0.382812 15.351562 2.039062 17.023438 C 2.5625 17.554688 3.1875 17.914062 3.851562 18.109375 C 4.199219 18.222656 4.597656 18.308594 5.027344 18.402344 C 6.464844 18.714844 8.292969 19.113281 9.941406 20.777344 C 9.941406 20.777344 10.179688 20.234375 10.6875 19.71875 C 11.195312 19.203125 11.734375 18.960938 11.734375 18.960938 C 10.089844 17.296875 9.695312 15.449219 9.382812 13.996094 C 9.292969 13.558594 9.210938 13.15625 9.097656 12.808594 Z M 9.097656 12.808594 "/>
<path style=" stroke:none;fill-rule:nonzero;fill:url(#linear1);" d="M 20.054688 15.195312 C 20.246094 15.863281 20.605469 16.496094 21.128906 17.023438 C 22.785156 18.695312 25.460938 18.695312 27.117188 17.023438 C 28.765625 15.351562 28.765625 12.648438 27.117188 10.976562 C 26.589844 10.445312 25.960938 10.085938 25.300781 9.890625 C 24.957031 9.777344 24.554688 9.691406 24.125 9.597656 C 22.691406 9.285156 20.859375 8.886719 19.214844 7.222656 C 19.214844 7.222656 18.976562 7.765625 18.464844 8.28125 C 17.960938 8.796875 17.417969 9.039062 17.417969 9.039062 C 19.066406 10.703125 19.460938 12.554688 19.765625 14.003906 C 19.863281 14.441406 19.945312 14.84375 20.054688 15.195312 Z M 20.054688 15.195312 "/>
<path style=" stroke:none;fill-rule:nonzero;fill:url(#linear2);" d="M 10.511719 3.15625 C 10.703125 2.484375 11.0625 1.851562 11.585938 1.320312 C 13.238281 -0.347656 15.917969 -0.347656 17.570312 1.320312 C 19.222656 2.992188 19.222656 5.703125 17.570312 7.371094 C 17.042969 7.902344 16.417969 8.265625 15.753906 8.460938 C 15.410156 8.570312 15.011719 8.65625 14.578125 8.75 C 13.144531 9.0625 11.316406 9.460938 9.671875 11.125 C 9.671875 11.125 9.429688 10.582031 8.921875 10.066406 C 8.414062 9.554688 7.871094 9.3125 7.871094 9.3125 C 9.523438 7.648438 9.914062 5.796875 10.222656 4.347656 C 10.316406 3.910156 10.402344 3.507812 10.511719 3.15625 Z M 10.511719 3.15625 "/>
<path style=" stroke:none;fill-rule:nonzero;fill:url(#linear3);" d="M 18.640625 24.84375 C 18.449219 25.515625 18.089844 26.148438 17.570312 26.679688 C 15.917969 28.347656 13.238281 28.347656 11.585938 26.679688 C 9.929688 25.007812 9.929688 22.296875 11.585938 20.628906 C 12.105469 20.097656 12.734375 19.734375 13.398438 19.539062 C 13.742188 19.429688 14.140625 19.34375 14.574219 19.25 C 16.007812 18.9375 17.835938 18.539062 19.484375 16.875 C 19.484375 16.875 19.722656 17.417969 20.230469 17.933594 C 20.742188 18.445312 21.277344 18.6875 21.277344 18.6875 C 19.632812 20.351562 19.242188 22.203125 18.929688 23.652344 C 18.835938 24.089844 18.753906 24.492188 18.640625 24.84375 Z M 18.640625 24.84375 "/>
<path style="fill:none;stroke-width:1;stroke-linecap:butt;stroke-linejoin:round;stroke:rgb(0%,0%,0%);stroke-opacity:0.101961;stroke-miterlimit:4;" d="M 79.612877 121.773601 C 80.668751 125.092832 81.498366 128.896895 82.4034 133.073904 L 82.4034 133.111199 C 85.344763 146.798365 89.15345 164.364183 104.727587 180.214443 C 104.614458 180.251738 104.539038 180.326327 104.425909 180.363622 C 103.860262 180.66198 103.068357 181.109516 102.050193 181.706232 C 100.126994 182.899663 97.60044 184.7644 95.073885 187.225852 C 92.622749 189.724599 90.77497 192.297935 89.568257 194.237261 C 88.964901 195.169629 88.512384 196.027408 88.248415 196.586829 C 88.135286 196.698713 88.135286 196.773303 88.097576 196.847892 C 72.221761 181.258695 54.649006 177.529222 40.960358 174.545644 L 40.922648 174.545644 C 36.736863 173.65057 32.928175 172.830086 29.609715 171.785834 L 29.609715 171.748539 C 23.274473 169.921097 17.316329 166.489982 12.338638 161.567078 C -3.424048 145.754112 -3.424048 120.244517 12.338638 104.431552 C 28.101324 88.730471 53.593132 88.730471 69.393528 104.431552 C 74.371218 109.46634 77.802808 115.433497 79.612877 121.773601 Z M 186.36925 144.225029 C 185.313376 140.905798 184.521471 137.101735 183.616436 132.924725 L 183.616436 132.887431 C 180.637364 119.200265 176.866386 101.634447 161.292249 85.784187 C 161.367669 85.746892 161.443089 85.672303 161.556218 85.635008 C 162.121864 85.33665 162.95148 84.889113 163.894224 84.292398 C 165.855132 83.098966 168.419397 81.23423 170.908242 78.772778 C 173.397087 76.274031 175.207156 73.700694 176.451579 71.761369 C 177.017226 70.829 177.469743 69.971222 177.771421 69.411801 C 177.846841 69.299916 177.88455 69.225327 177.92226 69.150737 C 193.798075 84.739935 211.333121 88.469407 225.059479 91.452986 C 229.282974 92.348059 233.053951 93.205838 236.372411 94.212796 L 236.410121 94.250091 C 242.745363 96.077532 248.703508 99.508648 253.681198 104.431552 C 269.443884 120.244517 269.443884 145.754112 253.681198 161.567078 C 237.918512 177.268159 212.388994 177.268159 196.588599 161.567078 C 191.610908 156.532289 188.217029 150.565133 186.36925 144.225029 Z M 94.20656 29.618324 C 96.092049 23.27822 99.448219 17.311063 104.463619 12.313569 C 120.226305 -3.424807 145.755822 -3.424807 161.556218 12.313569 C 177.281194 28.051945 177.281194 53.63613 161.556218 69.374506 C 156.540818 74.372 150.582673 77.803115 144.247431 79.630557 C 140.928971 80.674809 137.120284 81.495293 132.896789 82.390367 C 119.208141 85.33665 101.635385 89.140713 85.75957 104.72991 C 85.72186 104.618025 85.684151 104.543436 85.646441 104.431552 C 85.344763 103.834836 84.854536 103.051647 84.288889 102.044689 C 83.082176 100.142658 81.234397 97.569322 78.783262 95.070575 C 76.294417 92.609122 73.692442 90.781681 71.769244 89.588249 C 70.78879 88.954239 69.996884 88.506702 69.431238 88.208344 C 69.318108 88.17105 69.204979 88.133755 69.129559 88.059165 C 84.703696 72.208905 88.474674 54.680382 91.453746 40.955922 C 92.358781 36.741617 93.188396 32.937555 94.20656 29.618324 Z M 171.775567 236.380306 C 169.927788 242.72041 166.533908 248.687567 161.556218 253.685061 C 145.755822 269.423437 120.226305 269.423437 104.463619 253.685061 C 88.738642 237.946685 88.738642 212.3625 104.463619 196.624124 C 109.479019 191.62663 115.437163 188.195515 121.772405 186.368073 C 125.090865 185.323821 128.899553 184.503337 133.085338 183.608263 C 146.811696 180.66198 164.346741 176.857917 180.222556 161.26872 C 180.297976 161.380604 180.297976 161.455194 180.373396 161.567078 C 180.637364 162.163794 181.127591 162.946983 181.730947 163.953941 C 182.93766 165.855972 184.747729 168.429308 187.236575 170.928055 C 189.72542 173.389507 192.289684 175.216949 194.212883 176.41038 C 195.193337 177.044391 195.985242 177.491928 196.588599 177.790285 C 196.664018 177.82758 196.739438 177.864875 196.852567 177.939464 C 181.27843 193.789724 177.507453 211.318247 174.56609 225.042708 C 173.661056 229.257013 172.831441 233.061075 171.775567 236.380306 Z M 171.775567 236.380306 " transform="matrix(0.103587,0,0,0.10474,0.8,0.0696518)"/>
</g>
</svg>
