<?xml version="1.0" encoding="UTF-8"?>
<svg xmlns="http://www.w3.org/2000/svg" xmlns:xlink="http://www.w3.org/1999/xlink" width="150px" height="35px" viewBox="0 0 148 35" version="1.1">
<defs>
<linearGradient id="linear0" gradientUnits="userSpaceOnUse" x1="119.251" y1="276.386" x2="112.859" y2="-28.0325" gradientTransform="matrix(0.129484,0,0,0.130925,0,0.0870647)">
<stop offset="0" style="stop-color:rgb(100%,0%,30.980392%);stop-opacity:1;"/>
<stop offset="1" style="stop-color:rgb(100%,1.960784%,50.588235%);stop-opacity:1;"/>
</linearGradient>
<linearGradient id="linear1" gradientUnits="userSpaceOnUse" x1="119.251" y1="276.386" x2="112.859" y2="-28.0325" gradientTransform="matrix(0.129484,0,0,0.130925,0,0.0870647)">
<stop offset="0" style="stop-color:rgb(100%,0%,30.980392%);stop-opacity:1;"/>
<stop offset="1" style="stop-color:rgb(100%,1.960784%,50.588235%);stop-opacity:1;"/>
</linearGradient>
<linearGradient id="linear2" gradientUnits="userSpaceOnUse" x1="119.251" y1="276.386" x2="112.859" y2="-28.0325" gradientTransform="matrix(0.129484,0,0,0.130925,0,0.0870647)">
<stop offset="0" style="stop-color:rgb(100%,0%,30.980392%);stop-opacity:1;"/>
<stop offset="1" style="stop-color:rgb(100%,1.960784%,50.588235%);stop-opacity:1;"/>
</linearGradient>
<linearGradient id="linear3" gradientUnits="userSpaceOnUse" x1="119.251" y1="276.386" x2="112.859" y2="-28.0325" gradientTransform="matrix(0.129484,0,0,0.130925,0,0.0870647)">
<stop offset="0" style="stop-color:rgb(100%,0%,30.980392%);stop-opacity:1;"/>
<stop offset="1" style="stop-color:rgb(100%,1.960784%,50.588235%);stop-opacity:1;"/>
</linearGradient>
</defs>
<g id="surface1">
<path style=" stroke:none;fill-rule:nonzero;fill:rgb(16.470588%,7.45098%,31.764706%);fill-opacity:1;" d="M 44.355469 17.597656 C 44.355469 23.875 49.011719 27.234375 53.933594 27.234375 C 57.84375 27.234375 61.832031 25.148438 62.636719 20.144531 L 58.78125 20.144531 C 58.140625 22.445312 56.238281 23.550781 53.910156 23.550781 C 50.5625 23.550781 48.394531 20.847656 48.394531 17.597656 C 48.394531 13.996094 50.617188 11.5625 53.933594 11.5625 C 56.183594 11.5625 57.871094 12.511719 58.703125 14.648438 L 62.582031 14.648438 C 61.726562 9.964844 57.710938 7.90625 53.933594 7.90625 C 49.011719 7.828125 44.355469 11.292969 44.355469 17.597656 Z M 69.078125 19.574219 C 69.078125 17.734375 70.390625 16.703125 71.835938 16.703125 C 73.417969 16.703125 73.980469 17.4375 74.191406 18.816406 C 74.273438 19.4375 74.273438 20.167969 74.273438 21.035156 L 74.273438 23.527344 C 74.273438 26.960938 76.363281 27.613281 79.464844 26.960938 L 79.464844 24.691406 C 78.207031 24.769531 78.019531 24.5 78.019531 23.335938 L 78.019531 19.84375 C 78.019531 19.195312 77.996094 18.601562 77.914062 17.976562 C 77.511719 15.515625 76.199219 13.890625 73.308594 13.753906 C 71.675781 13.671875 70.121094 14.164062 69.078125 15.757812 L 69.078125 7.257812 L 65.332031 7.257812 L 65.332031 27.070312 L 69.078125 27.070312 Z M 94.007812 14.917969 C 92.292969 14.1875 90.421875 13.730469 88.519531 13.703125 C 84.15625 13.617188 81.183594 15.949219 81.050781 20.359375 C 81.050781 24.066406 82.898438 27.179688 86.886719 27.261719 C 88.601562 27.261719 90.257812 26.367188 90.980469 24.746094 C 90.980469 27.421875 93.5 27.289062 95.238281 26.910156 L 95.238281 24.472656 C 93.953125 24.554688 94.007812 23.960938 94.007812 22.847656 Z M 90.367188 20.496094 C 90.285156 22.46875 89.484375 23.90625 87.691406 23.90625 C 85.765625 23.929688 84.796875 22.417969 84.796875 20.359375 C 84.878906 17.871094 86.191406 16.734375 88.226562 16.734375 C 88.867188 16.734375 89.644531 16.8125 90.367188 17.113281 Z M 97.582031 10.238281 C 97.582031 13.160156 101.972656 13.160156 101.972656 10.238281 C 101.972656 7.339844 97.582031 7.339844 97.582031 10.238281 Z M 101.652344 14.164062 L 97.90625 14.164062 L 97.90625 27.042969 L 101.652344 27.042969 Z M 104.230469 16.164062 C 105.679688 16.082031 105.652344 16.597656 105.652344 18.03125 L 105.652344 27.042969 L 109.402344 27.042969 L 109.402344 19.546875 C 109.402344 17.734375 110.710938 16.621094 112.105469 16.703125 C 113.46875 16.703125 114.617188 17.652344 114.59375 19.464844 L 114.59375 24.042969 C 114.59375 27.289062 117.136719 27.613281 119.675781 26.960938 L 119.675781 24.746094 C 118.367188 24.824219 118.3125 24.230469 118.3125 23.011719 L 118.3125 19.464844 C 118.394531 16.21875 116.867188 13.703125 113.226562 13.703125 C 111.515625 13.703125 109.988281 14.375 109.160156 15.917969 C 109.160156 13.40625 106.132812 13.59375 104.230469 13.945312 Z M 121.976562 7.234375 L 121.976562 22.089844 C 121.976562 26.773438 124.386719 27.773438 128.371094 27.042969 L 128.238281 24.203125 C 126.445312 24.5 125.667969 24.09375 125.667969 22.089844 L 125.667969 7.234375 Z M 130.050781 10.238281 C 130.050781 13.160156 134.4375 13.160156 134.4375 10.238281 C 134.4375 7.339844 130.050781 7.339844 130.050781 10.238281 Z M 134.121094 14.164062 L 130.367188 14.164062 L 130.367188 27.042969 L 134.121094 27.042969 Z M 142.5625 9.964844 L 139.5625 9.964844 L 139.160156 14.027344 L 136.460938 14.027344 L 136.460938 16.621094 L 138.894531 16.867188 L 138.894531 22.007812 C 138.894531 27.371094 142.828125 28.097656 147.273438 26.855469 L 146.925781 23.988281 C 144.785156 24.769531 142.5625 24.636719 142.5625 21.929688 L 142.5625 16.867188 L 146.765625 16.867188 L 146.765625 14.027344 L 142.5625 14.027344 Z M 142.5625 9.964844 "/>
<path style=" stroke:none;fill-rule:nonzero;fill:url(#linear0);" d="M 10.371094 16.011719 C 10.128906 15.171875 9.683594 14.378906 9.03125 13.71875 C 6.964844 11.628906 3.617188 11.628906 1.550781 13.71875 C -0.519531 15.808594 -0.519531 19.191406 1.550781 21.28125 C 2.203125 21.941406 2.984375 22.394531 3.816406 22.636719 C 4.25 22.777344 4.746094 22.886719 5.285156 23.003906 C 7.082031 23.394531 9.367188 23.890625 11.425781 25.972656 C 11.425781 25.972656 11.722656 25.292969 12.359375 24.648438 C 12.996094 24.003906 13.667969 23.703125 13.667969 23.703125 C 11.613281 21.621094 11.121094 19.3125 10.730469 17.496094 C 10.617188 16.949219 10.511719 16.445312 10.371094 16.011719 Z M 10.371094 16.011719 "/>
<path style=" stroke:none;fill-rule:nonzero;fill:url(#linear1);" d="M 24.070312 18.992188 C 24.308594 19.828125 24.757812 20.621094 25.410156 21.28125 C 27.480469 23.371094 30.828125 23.371094 32.894531 21.28125 C 34.957031 19.191406 34.957031 15.808594 32.894531 13.71875 C 32.238281 13.058594 31.453125 12.605469 30.625 12.363281 C 30.195312 12.222656 29.695312 12.113281 29.15625 11.996094 C 27.363281 11.605469 25.074219 11.109375 23.019531 9.027344 C 23.019531 9.027344 22.71875 9.707031 22.082031 10.351562 C 21.449219 10.996094 20.773438 11.296875 20.773438 11.296875 C 22.832031 13.378906 23.324219 15.691406 23.707031 17.503906 C 23.828125 18.050781 23.933594 18.554688 24.070312 18.992188 Z M 24.070312 18.992188 "/>
<path style=" stroke:none;fill-rule:nonzero;fill:url(#linear2);" d="M 12.140625 3.945312 C 12.378906 3.105469 12.828125 2.316406 13.480469 1.652344 C 15.546875 -0.433594 18.898438 -0.433594 20.960938 1.652344 C 23.027344 3.742188 23.027344 7.128906 20.960938 9.214844 C 20.304688 9.878906 19.523438 10.332031 18.691406 10.574219 C 18.261719 10.710938 17.765625 10.820312 17.222656 10.9375 C 15.429688 11.328125 13.144531 11.828125 11.089844 13.90625 C 11.089844 13.90625 10.789062 13.226562 10.152344 12.582031 C 9.515625 11.941406 8.839844 11.640625 8.839844 11.640625 C 10.902344 9.558594 11.394531 7.246094 11.777344 5.433594 C 11.894531 4.886719 12.003906 4.382812 12.140625 3.945312 Z M 12.140625 3.945312 "/>
<path style=" stroke:none;fill-rule:nonzero;fill:url(#linear3);" d="M 22.300781 31.054688 C 22.0625 31.894531 21.613281 32.683594 20.960938 33.347656 C 18.898438 35.433594 15.546875 35.433594 13.480469 33.347656 C 11.414062 31.257812 11.414062 27.871094 13.480469 25.785156 C 14.132812 25.121094 14.917969 24.667969 15.746094 24.425781 C 16.179688 24.289062 16.675781 24.179688 17.21875 24.0625 C 19.011719 23.671875 21.296875 23.171875 23.355469 21.09375 C 23.355469 21.09375 23.652344 21.773438 24.289062 22.417969 C 24.925781 23.058594 25.597656 23.359375 25.597656 23.359375 C 23.542969 25.441406 23.050781 27.753906 22.664062 29.566406 C 22.546875 30.113281 22.441406 30.617188 22.300781 31.054688 Z M 22.300781 31.054688 "/>
<path style="fill:none;stroke-width:1;stroke-linecap:butt;stroke-linejoin:round;stroke:rgb(0%,0%,0%);stroke-opacity:0.101961;stroke-miterlimit:4;" d="M 79.612999 121.781501 C 80.668875 125.093285 81.513575 128.882443 82.388443 133.089304 L 82.418611 133.11914 C 85.344894 146.813814 89.146045 164.357319 104.712664 180.230013 C 104.62216 180.259849 104.531657 180.319521 104.441153 180.379192 C 103.867964 180.677551 103.053431 181.095254 102.057892 181.721808 C 100.127148 182.915243 97.593048 184.765069 95.089115 187.241448 C 92.61535 189.717827 90.77511 192.283713 89.568395 194.252882 C 88.965038 195.177795 88.51252 196.0132 88.241009 196.580082 C 88.150505 196.699425 88.120338 196.788933 88.09017 196.848605 C 72.221872 181.274269 54.664174 177.514947 40.967962 174.531358 L 40.937795 174.531358 C 36.744461 173.636281 32.94331 172.830712 29.624845 171.786456 L 29.624845 171.75662 C 23.289593 169.93663 17.316355 166.505503 12.338657 161.552745 C -3.439137 145.769558 -3.439137 120.230035 12.338657 104.446848 C 28.086284 88.723333 53.608298 88.723333 69.386093 104.446848 C 74.36379 109.459278 77.802927 115.426456 79.612999 121.781501 Z M 186.377078 144.218092 C 185.321203 140.906308 184.50667 137.117149 183.601634 132.910289 L 183.601634 132.880453 C 180.645184 119.185778 176.8742 101.642274 161.277413 85.76958 C 161.367917 85.739744 161.458421 85.680072 161.548924 85.6204 C 162.122114 85.322041 162.966814 84.904339 163.902018 84.277785 C 165.862929 83.084349 168.427198 81.234524 170.900963 78.758145 C 173.404896 76.281766 175.214968 73.715879 176.45185 71.776546 C 177.02504 70.821798 177.477558 69.986393 177.779236 69.419511 C 177.839572 69.300167 177.86974 69.21066 177.930076 69.150988 C 193.798373 84.725323 211.325904 88.484646 225.052283 91.468235 C 229.275784 92.363312 233.046767 93.198717 236.365233 94.213137 L 236.395401 94.242973 C 242.730652 96.062962 248.70389 99.49409 253.681588 104.446848 C 269.459382 120.230035 269.459382 145.769558 253.681588 161.552745 C 237.933962 177.27626 212.381779 177.27626 196.603985 161.552745 C 191.626287 156.540315 188.217318 150.573137 186.377078 144.218092 Z M 94.214247 29.618431 C 96.084654 23.293222 99.463455 17.296208 104.471321 12.313614 C 120.218947 -3.439737 145.77113 -3.439737 161.548924 12.313614 C 177.29655 28.066965 177.29655 53.636324 161.548924 69.359839 C 156.541058 74.372269 150.567821 77.803396 144.232569 79.623386 C 140.914104 80.667642 137.112952 81.503047 132.889451 82.398124 C 119.19324 85.351877 101.635542 89.141035 85.767244 104.715371 C 85.706908 104.625863 85.67674 104.536355 85.646573 104.446848 C 85.344894 103.85013 84.862208 103.044561 84.289019 102.059976 C 83.082304 100.150479 81.242064 97.584593 78.768299 95.078378 C 76.294534 92.601999 73.700097 90.782009 71.769354 89.588574 C 70.803982 88.96202 69.98945 88.514482 69.41626 88.216123 C 69.325757 88.156451 69.205085 88.126615 69.14475 88.066943 C 84.711369 72.224085 88.482352 54.68058 91.438803 40.95607 C 92.374007 36.749209 93.188539 32.930215 94.214247 29.618431 Z M 171.775831 236.381161 C 169.935591 242.70637 166.526622 248.703385 161.548924 253.685979 C 145.77113 269.439329 120.218947 269.439329 104.471321 253.685979 C 88.723695 237.932628 88.723695 212.363268 104.471321 196.639753 C 109.479187 191.627324 115.452424 188.196196 121.757508 186.376207 C 125.075974 185.33195 128.907293 184.496545 133.070458 183.601469 L 133.100626 183.601469 C 146.796838 180.647715 164.354536 176.858557 180.222833 161.284222 C 180.283169 161.373729 180.313337 161.463237 180.373673 161.552745 C 180.645184 162.149463 181.127869 162.955032 181.731227 163.939616 C 182.937941 165.849113 184.748013 168.415 187.221778 170.921215 C 189.725711 173.397594 192.28998 175.217583 194.220723 176.411019 C 195.186095 177.037573 196.000628 177.485111 196.573817 177.78347 C 196.664321 177.843142 196.754824 177.872978 196.845328 177.932649 C 181.278709 193.775508 177.507725 211.319012 174.551275 225.043522 C 173.646239 229.250383 172.831706 233.069377 171.775831 236.381161 Z M 171.775831 236.381161 " transform="matrix(0.129484,0,0,0.130925,0,0.0870647)"/>
</g>
</svg>
